<svg id="Layer_1" data-name="Layer 1" xmlns="http://www.w3.org/2000/svg" viewBox="0 0 224 224"><g id="T1E61r"><path d="M119.79,25.11c0,5.65,0,11.3,0,17,0,4.81-3.46,8.34-8,8.32s-7.92-3.57-7.93-8.41q0-16.83,0-33.67a8,8,0,0,1,8-8.31c4.55,0,7.91,3.55,7.94,8.4C119.81,14,119.79,19.54,119.79,25.11Z"/><path d="M25.2,103.8c5.57,0,11.14,0,16.71,0,4.88,0,8.43,3.33,8.49,7.86s-3.51,8.1-8.5,8.11q-16.71,0-33.42,0c-5,0-8.53-3.44-8.48-8.11s3.6-7.84,8.49-7.86C14.06,103.78,19.63,103.8,25.2,103.8Z"/><path d="M198.33,103.8c5.65,0,11.3,0,17,0,4.82,0,8.33,3.44,8.31,8s-3.54,7.93-8.4,7.94q-16.83,0-33.67,0a8,8,0,0,1-8.33-8c0-4.54,3.57-7.91,8.42-7.94C187.19,103.78,192.76,103.8,198.33,103.8Z"/><path d="M119.79,198.38c0,5.57,0,11.14,0,16.71,0,5-3.44,8.54-8.12,8.49s-7.85-3.61-7.85-8.49q0-16.71,0-33.41c0-4.89,3.32-8.44,7.86-8.5s8.08,3.5,8.11,8.5C119.81,187.25,119.79,192.82,119.79,198.38Z"/><path d="M152.66,161.82c.07-4.68,1.65-7.14,4.72-8.56a7.8,7.8,0,0,1,8.94,1.82q9.21,9.12,18.35,18.33c1.35,1.35,2.73,2.67,4.05,4.06a8.49,8.49,0,0,1-1.8,13.1c-2.8,1.68-6.42,1-9.47-2-3.86-3.78-7.66-7.62-11.48-11.44-3.52-3.53-7.17-7-10.52-10.63A22.84,22.84,0,0,1,152.66,161.82Z"/><path d="M152.15,62.56c.94-1.76,1.55-3.86,2.89-5.24,7.47-7.7,15.08-15.26,22.71-22.79a7.86,7.86,0,0,1,11.22,11c-7.8,8-15.7,15.8-23.62,23.65-2.06,2-4.55,2.76-7.29,1.41A9.9,9.9,0,0,1,152.15,62.56Z"/><path d="M31.77,182.85c1-1.76,1.6-3.84,2.94-5.22,7.4-7.63,14.94-15.11,22.5-22.58a7.87,7.87,0,1,1,11.15,11.1c-6.5,6.64-13.12,13.17-19.69,19.74-.94.94-1.91,1.86-2.8,2.84-2.77,3-4.65,3.6-7.84,2.32A9.55,9.55,0,0,1,31.77,182.85Z"/><path d="M31.78,40.35c.55-3.57,2-6,5-7.4s6-1.17,8.37,1.11c8,7.82,16,15.73,23.76,23.78,2.82,2.9,2.06,8.42-1.08,11.26C65.2,71.51,60.07,71.1,57,68c-6.4-6.28-12.7-12.66-19-19a26.29,26.29,0,0,1-3.3-3.38A50.9,50.9,0,0,1,31.78,40.35Z"/></g></svg>