<svg id="Layer_1" data-name="Layer 1" xmlns="http://www.w3.org/2000/svg" viewBox="0 0 82 164"><defs><style>.cls-1{fill:#fff;}.cls-2{fill:#eaeaea;}</style></defs><path class="cls-1" d="M48.47,40.38c-.36.31-.58.47-.77.66L35,53.73a1.92,1.92,0,0,0-.61,2.13,1.84,1.84,0,0,0,2.9.82,6.33,6.33,0,0,0,.46-.44L52,42c1.12-1.11,1.11-2.05,0-3.18L37.65,24.48a2.08,2.08,0,0,0-1.5-.75,1.79,1.79,0,0,0-1.68,1,1.77,1.77,0,0,0,.23,2c.16.19.35.36.52.54L47.84,39.92A5.83,5.83,0,0,0,48.47,40.38Z"/><path class="cls-2" d="M48.47,40.38c-.36.31-.58.47-.77.66L35,53.73a1.92,1.92,0,0,0-.61,2.13,1.84,1.84,0,0,0,2.9.82,6.33,6.33,0,0,0,.46-.44L52,42c1.12-1.11,1.11-2.05,0-3.18L37.65,24.48a2.08,2.08,0,0,0-1.5-.75,1.79,1.79,0,0,0-1.68,1,1.77,1.77,0,0,0,.23,2c.16.19.35.36.52.54L47.84,39.92A5.83,5.83,0,0,0,48.47,40.38Z"/><path class="cls-1" d="M33.61,122.38c.36.31.57.47.76.66l12.7,12.69a1.91,1.91,0,0,1,.62,2.13,1.84,1.84,0,0,1-2.9.82,4.78,4.78,0,0,1-.46-.44L30.08,124c-1.12-1.11-1.11-2,0-3.18q7.17-7.16,14.33-14.33a2.12,2.12,0,0,1,1.51-.75,1.86,1.86,0,0,1,1.44,3,6.57,6.57,0,0,1-.52.54L34.24,121.92A5.83,5.83,0,0,1,33.61,122.38Z"/><path class="cls-2" d="M33.61,122.38c.36.31.57.47.76.66l12.7,12.69a1.91,1.91,0,0,1,.62,2.13,1.84,1.84,0,0,1-2.9.82,4.78,4.78,0,0,1-.46-.44L30.08,124c-1.12-1.11-1.11-2,0-3.18q7.17-7.16,14.33-14.33a2.12,2.12,0,0,1,1.51-.75,1.86,1.86,0,0,1,1.44,3,6.57,6.57,0,0,1-.52.54L34.24,121.92A5.83,5.83,0,0,1,33.61,122.38Z"/></svg>